<svg width="32" height="32" viewBox="0 0 32 32" fill="none" xmlns="http://www.w3.org/2000/svg">
<circle cx="16" cy="16" r="16" fill="url(#paint0_linear_4011_140)"/>
<path d="M21.2653 11.8198C21.261 11.7628 21.2133 11.7188 21.1562 11.7188H19.7344C19.4323 11.7188 19.1875 11.4739 19.1875 11.1719V11.1719C19.1875 9.42286 17.7645 8 16.0156 8C14.2667 8 12.8437 9.42286 12.8437 11.1719V11.1719C12.8437 11.4739 12.5989 11.7188 12.2969 11.7188H10.875C10.8179 11.7188 10.7702 11.7628 10.7659 11.8198L10.0003 22.8823C9.99802 22.9126 10.0084 22.9426 10.0292 22.9649C10.0499 22.9873 10.079 23 10.1094 23H21.9219C21.9523 23 21.9814 22.9873 22.002 22.965C22.0227 22.9427 22.0332 22.9127 22.0309 22.8824L21.2653 11.8198ZM13.7187 11.1719C13.7187 9.90542 14.749 8.875 16.0156 8.875C17.2822 8.875 18.3125 9.90542 18.3125 11.1719V11.1719C18.3125 11.4739 18.0676 11.7188 17.7656 11.7188H14.2656C13.9636 11.7188 13.7187 11.4739 13.7187 11.1719V11.1719ZM13.2812 14.7812C12.678 14.7812 12.1875 14.2906 12.1875 13.6875C12.1875 13.5941 12.1975 13.5028 12.2175 13.4151C12.3246 12.9459 12.8437 13.2063 12.8437 13.6875V13.6875C12.8437 13.9288 13.0401 14.125 13.2812 14.125C13.5224 14.125 13.7187 13.9288 13.7187 13.6875V13.6875C13.7187 13.2066 14.2369 12.9468 14.3447 13.4155C14.3649 13.5032 14.375 13.5945 14.375 13.6875C14.375 14.2906 13.8844 14.7812 13.2812 14.7812ZM18.75 14.7812C18.1468 14.7812 17.6562 14.2906 17.6562 13.6875C17.6562 13.5941 17.6662 13.5028 17.6863 13.4151C17.7933 12.9459 18.3125 13.2063 18.3125 13.6875V13.6875C18.3125 13.9288 18.5088 14.125 18.75 14.125C18.9912 14.125 19.1875 13.9288 19.1875 13.6875V13.6875C19.1875 13.2066 19.7056 12.9468 19.8135 13.4155C19.8336 13.5032 19.8437 13.5945 19.8437 13.6875C19.8437 14.2906 19.3532 14.7812 18.75 14.7812Z" fill="white"/>
<defs>
<linearGradient id="paint0_linear_4011_140" x1="5" y1="4" x2="28.5" y2="28" gradientUnits="userSpaceOnUse">
<stop stop-color="#FE5A2A"/>
<stop offset="1" stop-color="#F68656"/>
</linearGradient>
</defs>
</svg>
