<svg width="100" height="27" viewBox="0 0 100 27" fill="none" xmlns="http://www.w3.org/2000/svg">
<mask id="mask0_4011_133" style="mask-type:alpha" maskUnits="userSpaceOnUse" x="0" y="0" width="100" height="27">
<rect width="100" height="27" fill="#D9D9D9"/>
</mask>
<g mask="url(#mask0_4011_133)">
<path d="M-65 -391H165C172.732 -391 179 -384.732 179 -377V-13.1735C179 -5.44147 172.732 0.826538 165 0.826538H90.7913C86.816 0.826538 82.9831 2.30637 80.0393 4.97772L64.784 18.8209C56.3971 26.4314 43.6028 26.4314 35.216 18.8209L19.9607 4.97772C17.0169 2.30637 13.184 0.826538 9.20872 0.826538H-65C-72.732 0.826538 -79 -5.44147 -79 -13.1735V-377C-79 -384.732 -72.732 -391 -65 -391Z" fill="white" stroke="#ECEEF7" stroke-width="2"/>
</g>
</svg>
