<svg width="32" height="32" viewBox="0 0 32 32" fill="none" xmlns="http://www.w3.org/2000/svg">
<path fill-rule="evenodd" clip-rule="evenodd" d="M16 0H0V16V32H16H32V16V0H16Z" fill="url(#paint0_linear_3996_22)"/>
<path d="M21.8766 18.1894C21.0195 18.1894 20.1779 18.0553 19.3804 17.7918C18.9896 17.6585 18.5091 17.7808 18.2706 18.0257L16.6965 19.2141C14.8709 18.2396 13.7464 17.1154 12.7852 15.3035L13.9386 13.7704C14.2382 13.4711 14.3457 13.034 14.2169 12.6238C13.9522 11.8221 13.8178 10.9809 13.8178 10.1234C13.8178 9.50396 13.3138 9 12.6944 9H10.1234C9.50396 9 9 9.50396 9 10.1234C9 17.2237 14.7764 23 21.8766 23C22.496 23 23 22.496 23 21.8766V19.3128C23 18.6934 22.496 18.1894 21.8766 18.1894Z" fill="white"/>
<defs>
<linearGradient id="paint0_linear_3996_22" x1="16.551" y1="69.0411" x2="-15.7124" y2="58.7176" gradientUnits="userSpaceOnUse">
<stop stop-color="#F58656"/>
<stop offset="1" stop-color="#FE5626"/>
</linearGradient>
</defs>
</svg>
